<?xml version="1.0" encoding="UTF-8"?>
<!DOCTYPE svg PUBLIC "-//W3C//DTD SVG 1.1//EN" "http://www.w3.org/Graphics/SVG/1.1/DTD/svg11.dtd">
<svg version="1.1" xmlns="http://www.w3.org/2000/svg" xmlns:xlink="http://www.w3.org/1999/xlink" x="0" y="0" width="1224" height="792" viewBox="0, 0, 1224, 792">
  <g id="Layer_1">
    <g>
      <path d="M611.961,328.602 C609.112,335.402 607.355,343.594 606.779,352.929 C606.276,361.098 608.647,364.294 609.385,365.08 C610.253,366.003 610.956,366.003 611.187,366.003 C612.053,366.002 613.051,365.465 613.926,364.528 C616.241,362.049 617.349,357.417 616.965,351.821 C616.357,342.954 614.66,335.137 611.961,328.602 M571.599,409.621 L612.01,450.031 L652.42,409.621 C678.889,381.778 688.705,353.302 679.352,331.479 C672.927,316.492 658.104,306.421 642.466,306.421 C638.732,306.421 633.925,307.042 629.021,309.368 C635.751,320.333 639.813,334.187 640.908,350.179 C641.758,362.564 638.405,373.477 631.469,380.907 C625.993,386.771 618.791,390.002 611.19,390.003 C603.896,390.003 597.046,386.992 591.902,381.521 C587.223,376.546 581.85,367.29 582.825,351.454 C583.846,334.871 588.003,320.555 594.989,309.298 C590.103,306.969 585.307,306.347 581.578,306.347 C565.956,306.347 551.136,316.434 544.701,331.446 C535.335,353.298 545.14,381.787 571.599,409.621 M463.357,312.848 C463.525,313.65 463.61,314.47 463.61,315.295 C463.61,352.433 477.679,374.437 492.575,397.734 C495.321,402.029 498.16,406.469 500.879,410.968 C513.983,432.658 534.066,488.585 544.174,517.867 L595.039,467.001 L554.524,426.487 C554.455,426.417 554.387,426.347 554.319,426.277 C536.736,407.811 525.242,388.982 520.158,370.313 C515.524,353.302 516.384,336.593 522.642,321.991 C532.806,298.279 556.49,282.347 581.578,282.347 C592.635,282.347 603.145,285.539 612.048,291.483 C620.953,285.587 631.444,282.421 642.466,282.421 C667.569,282.421 691.257,298.337 701.41,322.024 C707.664,336.616 708.517,353.318 703.875,370.326 C698.784,388.985 687.285,407.809 669.7,426.277 C669.633,426.347 669.565,426.417 669.495,426.487 L628.981,467.001 L679.3,517.321 C688.083,487.771 705.87,433.487 724.209,410.075 C746.774,381.267 760.52,360.521 760.653,316.246 L760.633,316.06 C760.585,315.623 760.561,315.184 760.561,314.745 C760.561,232.802 693.896,166.138 611.953,166.138 C530.646,166.138 464.38,231.779 463.357,312.848 M685.254,552.301 C681.775,552.301 678.42,550.786 676.116,548.079 L612.01,483.972 L547.495,548.487 C544.549,551.431 540.289,552.637 536.238,551.677 C532.187,550.715 528.923,547.721 527.616,543.767 C527.309,542.837 496.677,450.424 480.337,423.38 C477.776,419.141 475.143,415.023 472.355,410.663 C457.24,387.024 440.14,360.28 439.622,317.305 C439.439,316.466 439.346,315.608 439.346,314.745 C439.346,219.569 516.777,142.138 611.953,142.138 C706.902,142.138 784.191,219.208 784.56,314.073 L784.582,314.28 C784.63,314.717 784.654,315.156 784.654,315.595 C784.654,367.795 767.433,393.814 743.103,424.873 C724.616,448.475 703.451,518.412 696.857,543.367 C695.704,547.727 692.205,551.073 687.798,552.029 C686.951,552.212 686.099,552.301 685.254,552.301" fill="#FFF472"/>
      <path d="M567.444,585.095 C569.793,607.414 588.759,624.889 611.672,624.889 C634.831,624.889 653.912,607.095 655.962,584.461 L612,537.556 z M611.672,648.889 C574.043,648.889 543.326,618.278 543.2,580.652 L543.2,580.612 L543.199,580.612 L543.199,580.416 C543.199,576.597 544.984,573.195 547.764,570.996 L603.244,511.802 C605.513,509.381 608.682,508.008 612,508.008 C615.317,508.008 618.487,509.381 620.756,511.802 L677.556,572.406 C680.748,575.811 681.632,580.696 679.997,584.931 C677.666,620.591 647.912,648.889 611.672,648.889" fill="#FFF472"/>
    </g>
  </g>
</svg>
